.
..............................Site Info...........................

 -   http://www.scenetime.com  *_*    

Scenetime .Always on time . friendly online private torrent community ..

     We care to share . Join us on  http://www.scenetime.com 

    Be the first to get new release at  http://www.scenetime.com

        Seed back for speed


...................................NFO:.................................................[IMG]http://i.imgur.com/qD9lu.gif[/IMG]

 
TITLE: 

Shreks Thrilling Tales 2012 DVDRiP AC3 XViD - INSPiRAL

IMDB: 
 
http://www.amazon.com/Shreks-Thrilling-Tales-Mike-Myers/dp/B0087MN9FQ


SOURCES:

VIDEO -  Shreks.Thrilling.Tales.2012.COMPLETE.NTSC.DVDR-KART3LDVD THANKS
AUDIO -  Shreks.Thrilling.Tales.2012.COMPLETE.NTSC.DVDR-KART3LDVD THANKS
SUBS  - None Add

STATS:

Video
ID                               : 0
Format                           : MPEG-4 Visual
Format profile                   : Advanced Simple@L5
Format settings, BVOP            : 2
Format settings, QPel            : No
Format settings, GMC             : No warppoints
Format settings, Matrix          : Default (MPEG)
Muxing mode                      : Packed bitstream
Codec ID                         : XVID
Codec ID/Hint                    : XviD
Duration                         : 32mn 0s
Bit rate                         : 2 604 Kbps
Width                            : 720 pixels
Height                           : 400 pixels
Display aspect ratio             : 16:9
Frame rate                       : 23.976 fps
Color space                      : YUV
Chroma subsampling               : 4:2:0
Bit depth                        : 8 bits
Scan type                        : Progressive
Compression mode                 : Lossy
Bits/(Pixel*Frame)               : 0.377
Stream size                      : 596 MiB (85%)
Writing library                  : XviD 64

Audio
ID                               : 1
Format                           : AC-3
Format/Info                      : Audio Coding 3
Mode extension                   : CM (complete main)
Codec ID                         : 2000
Duration                         : 31mn 52s
Bit rate mode                    : Constant
Bit rate                         : 448 Kbps
Channel(s)                       : 6 channels
Channel positions                : Front: L C R, Side: L R, LFE
Sampling rate                    : 48.0 KHz
Bit depth                        : 16 bits
Compression mode                 : Lossy
Stream size                      : 102 MiB (15%)
Alignment                        : Aligned on interleaves
Interleave, duration             : 42 ms (1.00 video frame)
Interleave, preload duration     : 512 ms




NOTES:

Ok pretty straight forward rip of the iso file here ....just had to open it up and pick the main video 
and then rip that.Did choose to do a little tweaking,but only slight improvements.
Audio was oos throughout so had to add an offset of +5800ms to line it up.


SCREENS:

[img]http://i.imgrz.com/a17Z.png[/img] 
[img]http://i.imgrz.com/8JW6.png[/img] 
[img]http://i.imgrz.com/NzQ4e.png[/img] 
[img]http://i.imgrz.com/fLmNx.png[/img] 
[img]http://i.imgrz.com/v92x.png[/img] 

GREETZ: 

Past,Present and Future

[IMG]http://i.imgur.com/qD9lu.gif[/IMG]